<svg xmlns="http://www.w3.org/2000/svg" width="64" height="64" viewBox="0 0 64 64">
  <defs>
    <linearGradient id="gold" x1="0" x2="1" y1="0" y2="1">
      <stop offset="0" stop-color="#FFF3B0"/>
      <stop offset="0.55" stop-color="#D4AF37"/>
      <stop offset="1" stop-color="#FFE58A"/>
    </linearGradient>
  </defs>
  <rect width="64" height="64" rx="14" fill="#070707"/>
  <path fill="url(#gold)" d="M39 9C27 11 18 21 18 33c0 14 11 25 25 25 7 0 13-3 18-8-4 3-9 5-15 5-14 0-25-11-25-25 0-9 5-17 12-21 2-1 4-2 6-3z"/>
  <path fill="url(#gold)" d="M36 26c0-2 3-4 5-2l11 7c2 1 2 4 0 5l-11 7c-2 1-5 0-5-3V26z"/>
  <path fill="none" stroke="url(#gold)" stroke-width="4" stroke-linecap="round" d="M29 16c13 2 21 9 26 20"/>
</svg>
