<svg xmlns="http://www.w3.org/2000/svg" width="512" height="512" viewBox="0 0 512 512" role="img" aria-labelledby="title desc">
  <title id="title">夜趣影城 icon</title>
  <desc id="desc">Gold crescent moon, play button and film strip.</desc>
  <defs>
    <radialGradient id="bg" cx="50%" cy="45%" r="70%">
      <stop offset="0" stop-color="#221A10"/>
      <stop offset="0.55" stop-color="#0E0D0B"/>
      <stop offset="1" stop-color="#020202"/>
    </radialGradient>
    <linearGradient id="gold" x1="0" x2="1" y1="0" y2="1">
      <stop offset="0" stop-color="#FFF3B0"/>
      <stop offset="0.28" stop-color="#F7D866"/>
      <stop offset="0.58" stop-color="#D4AF37"/>
      <stop offset="0.82" stop-color="#A9791D"/>
      <stop offset="1" stop-color="#FFE58A"/>
    </linearGradient>
    <filter id="glow" x="-40%" y="-40%" width="180%" height="180%">
      <feGaussianBlur stdDeviation="9" result="blur"/>
      <feColorMatrix in="blur" type="matrix" values="1 0 0 0 1  0 1 0 0 0.72  0 0 1 0 0.18  0 0 0 0.7 0" result="goldGlow"/>
      <feMerge><feMergeNode in="goldGlow"/><feMergeNode in="SourceGraphic"/></feMerge>
    </filter>
  </defs>
  <rect width="512" height="512" rx="104" fill="url(#bg)"/>
  <g filter="url(#glow)">
    <path fill="url(#gold)" d="M300 72c-95 13-166 94-166 192 0 106 86 192 192 192 57 0 109-25 144-65-32 22-71 35-113 35-107 0-194-87-194-194 0-69 36-130 90-164 14-9 29-17 47-22z"/>
    <path fill="url(#gold)" d="M287 208c0-20 22-32 39-22l92 56c17 10 17 34 0 44l-92 56c-17 10-39-2-39-22V208z"/>
    <path fill="none" stroke="url(#gold)" stroke-width="28" stroke-linecap="round" d="M224 130c101 13 164 70 208 166" opacity="0.95"/>
    <g opacity="0.72" fill="#241905">
      <rect x="248" y="148" width="24" height="30" rx="3" transform="rotate(17 248 148)"/>
      <rect x="300" y="169" width="24" height="30" rx="3" transform="rotate(27 300 169)"/>
      <rect x="348" y="206" width="24" height="30" rx="3" transform="rotate(39 348 206)"/>
    </g>
  </g>
</svg>
